<svg width="16" height="16" viewBox="0 0 16 16" fill="currentColor" xmlns="http://www.w3.org/2000/svg"><path fill-rule="evenodd" clip-rule="evenodd" d="M1.167 1.25a.667.667 0 000 1.333h1.77l.468 2.336a.664.664 0 00.011.053l.967 4.833a1.825 1.825 0 001.819 1.47h5.62a1.826 1.826 0 001.819-1.47l.001-.005.927-4.861a.667.667 0 00-.655-.792H4.611l-.473-2.361a.667.667 0 00-.654-.536H1.167zM5.69 9.544L4.878 5.48h8.23l-.775 4.067a.492.492 0 01-.492.395H6.183a.492.492 0 01-.492-.397zm-1.134 3.961a1.246 1.246 0 112.492 0 1.246 1.246 0 01-2.492 0zm6.374 0a1.246 1.246 0 112.491 0 1.246 1.246 0 01-2.491 0z"/></svg>