<svg width="18" height="18" viewBox="0 0 18 18" fill="none" xmlns="http://www.w3.org/2000/svg"><path fill-rule="evenodd" clip-rule="evenodd" d="M.646 2.156c0-.368.298-.666.667-.666H3.92c.318 0 .591.224.654.536l.545 2.723h10.535a.667.667 0 01.654.792l-1.043 5.469v.005A1.97 1.97 0 0113.3 12.6H6.976a1.97 1.97 0 01-1.963-1.586l-1.089-5.44a.662.662 0 01-.01-.056l-.54-2.696H1.313a.667.667 0 01-.667-.667zm5.883 11.72a1.318 1.318 0 100 2.636 1.318 1.318 0 000-2.636zm7.17 0a1.318 1.318 0 100 2.636 1.318 1.318 0 000-2.636z" fill="#2D3440"/></svg>