<svg width="24" height="24" viewBox="0 0 24 24" fill="none" xmlns="http://www.w3.org/2000/svg"><path d="M12.026 1.202c.876 0 1.737.223 2.496.648a4.93 4.93 0 011.83 1.772 4.75 4.75 0 01.674 2.422 4.75 4.75 0 01-.66 2.426c.302.042.586.165.82.355.234.19.41.44.506.72.096.281.11.583.04.871-.07.288-.221.552-.437.762a1.65 1.65 0 01-.784.424 1.69 1.69 0 01-.897-.039 1.645 1.645 0 01-.741-.491 1.574 1.574 0 01-.365-.797c-.062.034-.126.067-.19.1a2.241 2.241 0 01-.787 1.357c-.42.347-.954.537-1.505.537-.552 0-1.085-.19-1.505-.537-.42-.348-.7-.829-.788-1.357l-.19-.1c-.042.294-.169.57-.364.797a1.646 1.646 0 01-.742.492c-.29.094-.6.107-.898.039a1.656 1.656 0 01-.784-.426 1.584 1.584 0 01-.436-.763c-.07-.289-.055-.59.042-.872.097-.28.273-.53.508-.72.235-.189.52-.31.822-.352a4.749 4.749 0 01-.66-2.424 4.75 4.75 0 01.673-2.422 4.93 4.93 0 011.828-1.772 5.113 5.113 0 012.494-.65zm0-1.202c-.982 0-1.95.224-2.825.655a6.191 6.191 0 00-2.213 1.828 5.965 5.965 0 00-1.12 2.602A5.89 5.89 0 006.083 7.9a2.774 2.774 0 00-1.057 1.808c-.1.712.088 1.435.523 2.016a2.886 2.886 0 001.813 1.106 2.944 2.944 0 002.097-.418c.333.336.733.604 1.175.786a3.666 3.666 0 002.797 0c.443-.182.842-.45 1.176-.786a2.945 2.945 0 002.072.37 2.884 2.884 0 001.775-1.103 2.732 2.732 0 00.524-1.983A2.77 2.77 0 0017.969 7.9a5.889 5.889 0 00.215-2.814 5.964 5.964 0 00-1.12-2.602A6.19 6.19 0 0014.85.655 6.385 6.385 0 0012.026 0z" fill="#2D3440"/><path d="M16.133 13.533a3.64 3.64 0 01-1.415-.289c-.065.052-.134.098-.203.146l.094.09-.69.669-.295-.287a4.462 4.462 0 01-.373.124l.417.405-.688.67-.693-.67.274-.266a4.212 4.212 0 01-1.045.002l.273.264-.69.67-.689-.67.414-.402a3.883 3.883 0 01-.371-.123l-.297.283-.697-.67.087-.084c-.073-.05-.144-.098-.212-.151-.447.19-.928.287-1.415.289h-.106a.58.58 0 00.029.278l3.602 9.808a.284.284 0 00.014.034.9.9 0 00.058.103l.017.023a.615.615 0 00.072.079l.018.013.069.052.032.017a.65.65 0 00.076.034h.02l.07.017h.028a.572.572 0 00.198 0h.03l.069-.017h.03a.712.712 0 00.074-.034l.032-.019a.39.39 0 00.07-.05l.019-.013a.772.772 0 00.072-.08l.014-.022a.559.559 0 00.043-.069l.031-.068 3.61-9.813a.56.56 0 00.029-.279c-.036 0-.062.006-.107.006zm-2.475 2.683l-.69.67-.68-.67.687-.67.683.67zm-2.314.912l.689-.67.69.67-.69.67-.69-.67zm1.378 1.825l-.689.67-.69-.67.69-.67.69.67zm-.689-4.318l.69.67-.69.664-.69-.67.69-.664zm-.25 1.581l-.689.67-.69-.67.69-.67.69.67zm-2.635-2.428l.067-.065.69.668-.395.376-.362-.979zm.488 1.345l.513-.498.687.67-.68.664-.317-.307-.203-.53zm.5 1.351l.02-.019.687.67-.345.343-.362-.994zm.737 2.018l-.25-.687.464-.45.69.67-.683.681-.22-.214zm.607 1.652l-.33-.897.627.608-.297.289zm.539 1.47l-.409-1.113.416-.404.405.393-.412 1.123zm.544-1.48l-.276-.279.603-.587-.327.865zm.608-1.62l-.2.192-.684-.676.688-.668.455.44-.259.712zm.393-1.07l-.334-.326.69-.67v.01l-.356.986zm.649-1.767l-.3.282-.69-.67.69-.67.496.494-.196.565zm.332-.92l-.384-.374.69-.67.056.055-.362.99z" fill="#2D3440"/></svg>